<svg width="330" height="120" viewBox="0 0 330 120" fill="none" xmlns="http://www.w3.org/2000/svg">
<path d="M191.103 96.3491H171.126V87.0767H170.859C168.32 90.1675 165.336 92.4856 161.906 94.031C158.521 95.5764 154.713 96.3491 150.482 96.3491C144.692 96.3491 139.681 94.583 135.45 91.0506C131.218 87.5183 129.103 82.6392 129.103 76.4135C129.103 70.3644 131.129 65.3087 135.182 61.2465C139.235 57.1402 145.204 54.6675 153.087 53.8286L171.26 51.9079V49.9209C171.26 46.6094 170.191 44.1147 168.053 42.4368C165.96 40.7589 163.332 39.92 160.169 39.92C157.007 39.92 154.034 39.8622 151.818 42.1057C149.603 44.3491 150.103 47.3491 150.103 52.3491H134.103C134.103 38.8491 136.603 35.0736 142.932 29.9191C148.322 26.8724 154.691 25.3491 162.04 25.3491C171.483 25.3491 178.676 27.7555 183.62 32.5683C188.608 37.3811 191.103 44.6224 191.103 54.2922V96.3491ZM171.26 67.1411V64.6243L157.631 65.9489C154.468 66.258 152.152 67.119 150.682 68.532C149.257 69.9449 148.544 71.8435 148.544 74.2279C148.544 76.3473 149.346 78.0913 150.95 79.4601C152.553 80.8289 154.58 81.5133 157.029 81.5133C161.216 81.5133 164.623 80.1666 167.251 77.4732C169.924 74.7356 171.26 71.2916 171.26 67.1411Z" fill="#A3E90C"/>
<path d="M120.324 79.8996C122.283 79.8996 123.96 79.5381 125.336 78.8251C126.752 78.0619 127.816 77.0074 128.529 75.6617C129.282 74.2658 130.634 72.5988 130.594 70.6606H148.437C148.478 75.8023 148.222 80.3214 145.682 84.1978C143.181 88.034 139.757 91.0266 135.418 93.1858C131.12 95.2947 126.26 96.3491 120.837 96.3491C115.414 96.3491 110.905 95.4855 106.938 93.7582C102.971 91.9907 99.6571 89.5404 96.9858 86.4172C94.3547 83.2538 92.3764 79.5582 91.0407 75.3404C89.7453 71.1225 89.1025 66.5432 89.1025 61.6124V60.1562C89.1025 55.2254 89.7453 50.646 91.0407 46.4282C92.3764 42.1702 94.3547 38.4746 96.9858 35.3514C99.6571 32.188 102.951 29.7377 106.878 28.0104C110.844 26.2429 115.454 25.3491 120.706 25.3491C126.34 25.3491 131.301 26.4237 135.599 28.5727C139.937 30.7218 143.342 33.845 145.802 37.9323C148.263 42.0196 150.143 46.5245 150.103 52.3491H130.23C130.27 50.2804 129.893 48.986 129.23 47.3491C128.567 45.7122 126.952 44.2892 125.526 43.315C124.151 42.3007 122.373 41.7986 120.204 41.7986C118.035 41.7986 116.277 42.2807 114.942 43.2548C113.606 44.2289 112.582 45.5746 111.879 47.3019C111.216 48.989 110.754 50.9272 110.503 53.1265C110.292 55.3157 110.192 57.6657 110.192 60.1462V61.6023C110.192 64.133 110.292 66.5131 110.503 68.7525C110.754 70.9418 111.236 72.89 111.939 74.5771C112.652 76.2241 113.666 77.5296 115.002 78.5037C116.338 79.4276 118.115 79.8996 120.324 79.8996Z" fill="#1CB8FF"/>
<path d="M111.103 92.344C109.25 93.523 106.964 94.4766 104.244 95.2048C101.524 95.9677 98.5678 96.3491 95.375 96.3491C88.4376 96.3491 79.2936 94.9447 75.9432 92.1359C72.5927 89.3271 70.9174 85.1313 70.9174 79.5484L71.2001 48.3491H61.1025V36.3491H70.9174V25.3491H93.5421V36.3491H104.371V48.3491H93.0638V77.3491C93.0638 79.5684 94.1259 80.3491 94.6025 80.8491C95.4261 81.713 97.5233 81.7096 99.4547 81.7096C100.361 81.7096 101.268 81.5882 102.175 81.3455C103.081 81.068 104.303 80.5306 105.84 79.733L111.103 92.344Z" fill="#FF5A2C"/>
<path d="M60.8931 75.8443C60.8931 74.66 60.4781 73.6553 59.6587 72.8094C58.8712 71.9211 57.4877 71.1174 55.487 70.4088C53.4863 69.6474 50.6875 68.8861 47.0799 68.1352C43.6425 67.4161 40.4074 66.4644 37.3638 65.2906C34.3628 64.1062 31.7342 62.6786 29.4781 60.9866C27.222 59.2946 25.4342 57.2959 24.1358 54.9695C22.8801 52.6536 22.2416 49.9887 22.2416 46.996C22.2416 44.0033 22.8694 41.3384 24.1358 38.7687C25.4448 36.1567 27.3284 33.8514 29.808 31.8738C32.3301 29.8435 35.395 28.2678 39.0026 27.1257C42.6103 25.9413 46.7181 25.3491 51.326 25.3491C57.6686 25.3491 63.3646 26.4562 67.9725 28.3491C72.5805 30.2103 75.9089 32.667 78.3885 36.0404C80.9106 39.3715 80.9725 43.9605 80.9725 48.3491H59.9725C59.9725 46.6148 59.8928 44.4157 59.2862 43.189C58.7222 41.9623 57.7857 41.0317 56.4874 40.4078C55.1784 39.731 53.4438 39.3926 51.2728 39.3926C49.751 39.3926 48.3569 39.6676 47.1012 40.2175C45.888 40.7674 44.9089 41.5287 44.164 42.4911C43.4297 43.464 43.0572 44.606 43.0572 45.9068C43.0572 46.8374 43.2701 47.6833 43.7064 48.4342C44.1853 49.1533 44.8983 49.8301 45.8561 50.4646C46.8138 51.0567 48.027 51.6066 49.5062 52.1142C50.9855 52.5795 52.7627 53.0025 54.8485 53.3832C59.5842 54.2292 64.0219 55.4348 68.1509 56.9893C72.28 58.5544 75.6216 60.7645 78.1863 63.6303C80.7936 66.4961 82.1025 70.356 82.1025 75.2099C82.1025 78.2449 81.3895 81.0578 79.9529 83.6275C78.5162 86.1549 76.4517 88.3968 73.7593 90.332C71.0668 92.2355 67.8317 93.7054 64.0432 94.7629C60.2653 95.8204 55.9978 96.3491 51.2622 96.3491C44.5258 96.3491 38.8324 95.1859 34.1818 92.87C29.5313 90.5118 26.0088 87.5508 23.625 84.0082C21.2732 80.4233 20.1025 76.7961 20.1025 73.1266H40.5777C40.6628 75.2416 41.1842 76.9653 42.142 78.3189C43.1424 79.6725 44.462 80.6559 46.1221 81.2904C47.7716 81.9249 49.6872 82.2422 51.8581 82.2422C53.8588 82.2422 55.5083 81.9672 56.8173 81.4173C58.1688 80.8674 59.1904 80.1272 59.8822 79.2072C60.5739 78.2343 60.9251 77.1133 60.9251 75.8549L60.8931 75.8443Z" fill="#FFBF15"/>
<path fill-rule="evenodd" clip-rule="evenodd" d="M191.066 52.3491C191.09 52.9856 191.103 53.6332 191.103 54.2922V96.3491H171.126V87.0767H170.859C168.32 90.1675 165.336 92.4856 161.906 94.031C158.521 95.5764 154.713 96.3491 150.482 96.3491C144.692 96.3491 139.681 94.583 135.45 91.0506C131.218 87.5183 129.103 82.6392 129.103 76.4135C129.103 70.3644 131.129 65.3087 135.182 61.2465C139.235 57.1402 145.204 54.6675 153.087 53.8286L167.084 52.3491H191.066ZM157.631 65.9489C154.468 66.258 152.152 67.119 150.682 68.532C149.257 69.9449 148.544 71.8435 148.544 74.2279C148.544 76.3473 149.346 78.0913 150.95 79.4601C152.553 80.8289 154.58 81.5133 157.029 81.5133C161.216 81.5133 164.623 80.1666 167.251 77.4732C169.924 74.7356 171.26 71.2916 171.26 67.1411V64.6243L157.631 65.9489Z" fill="#A3E90C"/>
<path d="M302.905 80.1097C302.748 80.224 302.553 80.3165 302.321 80.387C302.089 80.461 301.837 80.498 301.564 80.498C300.973 80.498 300.534 80.3618 300.249 80.0896C299.963 79.8173 299.82 79.4106 299.82 78.8695V76.389H298.983V75.2143H299.82V73.8984L301.408 73.6161V75.2143H302.648V76.389H301.408V78.6376C301.408 78.8527 301.45 79.0123 301.534 79.1165C301.622 79.2207 301.748 79.2728 301.912 79.2728C301.99 79.2728 302.067 79.2611 302.144 79.2375C302.221 79.2106 302.326 79.1585 302.457 79.0812L302.905 80.1097ZM308.658 80.377H307.07V77.4074C307.07 77.0646 306.998 76.8007 306.853 76.6159C306.712 76.4276 306.509 76.3335 306.243 76.3335C305.961 76.3335 305.732 76.4377 305.557 76.6461C305.383 76.8545 305.295 77.1184 305.295 77.4377V80.377H303.702V72.7338H305.295V75.8647H305.315C305.48 75.6395 305.712 75.4546 306.011 75.3101C306.31 75.1655 306.608 75.0933 306.904 75.0933C307.455 75.0933 307.885 75.2664 308.194 75.6126C308.503 75.9588 308.658 76.4781 308.658 77.1705V80.377Z" fill="#757A84"/>
<path d="M243.153 54.0348L216.22 83.0399C216.103 83.1661 216.192 83.3714 216.364 83.3714H237.029L254.978 64.5121C260.996 58.2257 264.269 54.0348 264.269 46.1767C264.269 32.1371 254.133 23.6504 240.196 23.6504C227.104 23.6504 215.912 31.718 215.912 46.3863H233.228C233.228 40.6237 237.029 39.1569 240.196 39.1569C244.631 39.1569 246.954 41.9858 246.954 46.072C246.954 49.2152 245.898 51.1011 243.153 54.0348Z" fill="#757A84"/>
<path d="M280.933 25.3926C295.639 25.3926 307.562 37.3143 307.562 52.0205C307.562 66.7269 295.639 78.6494 280.933 78.6494C271.182 78.6493 262.657 73.4068 258.018 65.5879C260.632 62.8161 262.865 60.2243 264.457 57.3711C266.288 54.0872 267.218 50.5749 267.218 46.1777C267.218 40.752 265.839 35.9693 263.323 32.0488C268.017 27.9068 274.181 25.3927 280.933 25.3926ZM280.933 41.1719C274.942 41.1721 270.085 46.0293 270.084 52.0205C270.084 58.0119 274.942 62.869 280.933 62.8691C286.925 62.8691 291.782 58.012 291.782 52.0205C291.782 46.0292 286.924 41.1719 280.933 41.1719Z" fill="#757A84"/>
<path d="M309.898 84.7603L306.498 92.5423V96.3485H303.617V92.5908L300.354 84.7603H303.56L305 88.6876C305.048 88.8277 305.084 88.9489 305.108 89.0513C305.137 89.1483 305.178 89.3018 305.231 89.5119H305.259C305.307 89.3072 305.346 89.159 305.375 89.0675C305.403 88.9759 305.447 88.8493 305.504 88.6876L306.995 84.7603H309.898Z" fill="#757A84"/>
<path d="M301.909 96.3485H298.624L297.386 93.3666C297.218 92.9571 297.047 92.6581 296.874 92.4696C296.701 92.2756 296.502 92.1787 296.276 92.1787H295.916V96.3485H292.963V84.7603H297.17C298.437 84.7603 299.395 85.0727 300.043 85.6977C300.692 86.3172 301.016 87.1118 301.016 88.0816C301.016 88.8358 300.826 89.4958 300.447 90.0614C300.072 90.6217 299.556 91.0015 298.898 91.2009V91.2251C299.191 91.3221 299.45 91.4999 299.676 91.7585C299.902 92.0117 300.125 92.378 300.346 92.8575L301.909 96.3485ZM295.916 87.2411V89.8917H296.687C297.119 89.8917 297.453 89.7705 297.688 89.5281C297.923 89.2856 298.041 88.9543 298.041 88.5341C298.041 88.1193 297.931 87.8014 297.71 87.5805C297.494 87.3543 297.172 87.2411 296.745 87.2411H295.916Z" fill="#757A84"/>
<path d="M282.043 96.3485L285.659 84.7603H289.332L292.912 96.3485H289.7L289.095 94.2313H285.839L285.249 96.3485H282.043ZM286.343 91.7746H288.583L287.741 88.6068C287.683 88.3806 287.637 88.1974 287.604 88.0573C287.57 87.9119 287.534 87.7152 287.496 87.4674H287.438C287.404 87.6991 287.371 87.8876 287.337 88.0331C287.304 88.1785 287.256 88.3671 287.193 88.5988L286.343 91.7746Z" fill="#757A84"/>
<path d="M273.538 93.8325L275.928 92.4644C276.166 92.9256 276.479 93.2716 276.867 93.5023C277.255 93.7277 277.682 93.8404 278.149 93.8404C278.523 93.8404 278.817 93.7617 279.032 93.6045C279.252 93.4472 279.362 93.2087 279.362 92.889C279.362 92.6164 279.261 92.3962 279.06 92.2285C278.859 92.0555 278.486 91.9244 277.939 91.8353C276.668 91.6466 275.711 91.2535 275.066 90.6559C274.426 90.0531 274.106 89.2615 274.106 88.2813C274.106 87.2014 274.463 86.3339 275.178 85.6787C275.897 85.0234 276.923 84.6958 278.254 84.6958C279.236 84.6958 280.079 84.9055 280.784 85.3248C281.49 85.7442 281.994 86.2972 282.298 86.9839L279.859 88.1398C279.672 87.8252 279.441 87.5815 279.165 87.4085C278.89 87.2303 278.558 87.1412 278.17 87.1412C277.811 87.1412 277.533 87.2277 277.336 87.4006C277.14 87.5684 277.042 87.7807 277.042 88.0375C277.042 88.2892 277.147 88.4936 277.357 88.6508C277.568 88.8081 277.962 88.9313 278.542 89.0204C279.911 89.1881 280.906 89.5787 281.527 90.192C282.153 90.8 282.466 91.5942 282.466 92.5744C282.466 93.7591 282.09 94.6843 281.338 95.35C280.59 96.0158 279.523 96.3486 278.135 96.3486C277.093 96.3486 276.168 96.1311 275.36 95.696C274.557 95.2609 273.949 94.6398 273.538 93.8325Z" fill="#757A84"/>
<path d="M273.889 96.3485H270.604L269.366 93.3666C269.198 92.9571 269.027 92.6581 268.854 92.4696C268.681 92.2756 268.482 92.1787 268.256 92.1787H267.896V96.3485H264.943V84.7603H269.15C270.417 84.7603 271.375 85.0727 272.023 85.6977C272.672 86.3172 272.996 87.1118 272.996 88.0816C272.996 88.8358 272.806 89.4958 272.427 90.0614C272.052 90.6217 271.536 91.0015 270.878 91.2009V91.2251C271.171 91.3221 271.43 91.4999 271.656 91.7585C271.882 92.0117 272.105 92.378 272.326 92.8575L273.889 96.3485ZM267.896 87.2411V89.8917H268.667C269.099 89.8917 269.433 89.7705 269.668 89.5281C269.903 89.2856 270.021 88.9543 270.021 88.5341C270.021 88.1193 269.911 87.8014 269.69 87.5805C269.474 87.3543 269.152 87.2411 268.725 87.2411H267.896Z" fill="#757A84"/>
<path d="M264.553 96.3485H257.768V84.7603H264.315V87.3624H260.721V89.2048H264.063V91.7989H260.721V93.7464H264.553V96.3485Z" fill="#757A84"/>
<path d="M257.717 84.7603L254.159 96.3485H250.982L247.396 84.7603H250.485L252.344 91.8231C252.392 92.0063 252.43 92.1841 252.459 92.3564C252.492 92.5288 252.528 92.7066 252.567 92.8898H252.61C252.648 92.6959 252.68 92.5127 252.704 92.3403C252.732 92.1679 252.771 91.9847 252.819 91.7908L254.699 84.7603H257.717Z" fill="#757A84"/>
<path d="M247.351 96.3485H244.398V84.7603H247.351V96.3485Z" fill="#757A84"/>
<path d="M243.359 96.3485H240.262L236.784 90.2069C236.668 89.9968 236.568 89.8109 236.481 89.6493C236.4 89.4877 236.337 89.353 236.294 89.2452H236.265C236.275 89.45 236.282 89.7112 236.287 90.0291C236.292 90.3416 236.294 90.7052 236.294 91.12V96.3485H233.607V84.7603H236.776L240.183 90.7564C240.274 90.9234 240.361 91.085 240.442 91.2413C240.524 91.3921 240.601 91.5456 240.673 91.7019H240.702C240.692 91.5672 240.685 91.3679 240.68 91.1039C240.675 90.8345 240.673 90.5032 240.673 90.1099V84.7603H243.359V96.3485Z" fill="#757A84"/>
<path d="M232.569 96.3485H229.472L225.994 90.2069C225.878 89.9968 225.778 89.8109 225.691 89.6493C225.61 89.4877 225.547 89.353 225.504 89.2452H225.475C225.485 89.45 225.492 89.7112 225.497 90.0291C225.501 90.3416 225.504 90.7052 225.504 91.12V96.3485H222.817V84.7603H225.986L229.393 90.7564C229.484 90.9234 229.571 91.085 229.652 91.2413C229.734 91.3921 229.811 91.5456 229.883 91.7019H229.912C229.902 91.5672 229.895 91.3679 229.89 91.1039C229.885 90.8345 229.883 90.5032 229.883 90.1099V84.7603H232.569V96.3485Z" fill="#757A84"/>
<path d="M211.897 96.3485L215.513 84.7603H219.186L222.766 96.3485H219.554L218.949 94.2313H215.693L215.103 96.3485H211.897ZM216.197 91.7746H218.437L217.595 88.6068C217.537 88.3806 217.491 88.1974 217.458 88.0573C217.424 87.9119 217.388 87.7152 217.35 87.4674H217.292C217.258 87.6991 217.225 87.8876 217.191 88.0331C217.158 88.1785 217.11 88.3671 217.047 88.5988L216.197 91.7746Z" fill="#757A84"/>
<path d="M202.405 25.3931L202.405 96.3494" stroke="#A7A7A7" stroke-width="0.5"/>
</svg>
